# xmcd
#
# Track frame offsets:
#	150
#	21780
#	45515
#	92175
#	110987
#	151527
#	173287
#
# Disc length: 2989 seconds
#
# Revision: 0
# Processed by: cddbd v1.5.1PL2 Copyright (c) Steve Scherf et al.
# Submitted via: dBpowerAMP V4.0
#
DISCID=460bab07
DTITLE=Eric Clapton - Live At The Civil Hall, Clifford, 7th December 1978
DYEAR=1978
DGENRE=Blues
TTITLE0=Long You Is Sweeter Than Ever
TTITLE1=Worried Life Blues
TTITLE2=Badge
TTITLE3=Tulsa Time
TTITLE4=Early In The Morning
TTITLE5=Wonderful Tonight
TTITLE6=Crossroads
EXTD=
EXTT0=
EXTT1=
EXTT2=
EXTT3=
EXTT4=
EXTT5=
EXTT6=
PLAYORDER=
